<svg width="24" height="24" viewBox="0 0 24 24" fill="none" xmlns="http://www.w3.org/2000/svg">
<g id="home">
<path id="Vector " fill-rule="evenodd" clip-rule="evenodd" d="M11.5395 1.40802C11.8104 1.19737 12.1896 1.19737 12.4605 1.40802L21.4605 8.40802C21.6431 8.55011 21.75 8.76859 21.75 9.00003V20C21.75 20.7294 21.4603 21.4288 20.9445 21.9446C20.4288 22.4603 19.7293 22.75 19 22.75H5C4.27065 22.75 3.57118 22.4603 3.05546 21.9446C2.53973 21.4288 2.25 20.7294 2.25 20V9.00003C2.25 8.76859 2.35685 8.55011 2.53954 8.40802L11.5395 1.40802ZM3.75 9.36684V20C3.75 20.3316 3.8817 20.6495 4.11612 20.8839C4.35054 21.1183 4.66848 21.25 5 21.25H8.25V12C8.25 11.5858 8.58579 11.25 9 11.25H15C15.4142 11.25 15.75 11.5858 15.75 12V21.25H19C19.3315 21.25 19.6495 21.1183 19.8839 20.8839C20.1183 20.6495 20.25 20.3316 20.25 20V9.36684L12 2.95018L3.75 9.36684ZM14.25 21.25V12.75H9.75V21.25H14.25Z" fill="black"/>
</g>
</svg>
