<svg width="24" height="24" viewBox="0 0 24 24" fill="none" xmlns="http://www.w3.org/2000/svg">
<g id="settings" clip-path="url(#clip0_131_948)">
<path id="Vector " fill-rule="evenodd" clip-rule="evenodd" d="M12 1.74998C11.6685 1.74998 11.3505 1.88168 11.1161 2.1161C10.8817 2.35052 10.75 2.66846 10.75 2.99998V3.16998L10.75 3.17298C10.7481 3.64103 10.6094 4.09832 10.351 4.48856C10.0926 4.8788 9.72566 5.18496 9.29545 5.36934C9.22441 5.39978 9.14924 5.41901 9.07261 5.42646C8.6745 5.57096 8.24422 5.60786 7.8256 5.53196C7.35376 5.4464 6.91836 5.22146 6.57555 4.88613L6.56964 4.88035L6.50967 4.82031C6.39358 4.70409 6.25542 4.6116 6.10368 4.5487C5.95193 4.48579 5.78927 4.45341 5.625 4.45341C5.46073 4.45341 5.29807 4.48579 5.14632 4.5487C4.99458 4.6116 4.85672 4.7038 4.74063 4.82002C4.6244 4.93611 4.53162 5.07456 4.46871 5.22631C4.4058 5.37806 4.37343 5.54072 4.37343 5.70498C4.37343 5.86925 4.4058 6.03191 4.46871 6.18366C4.53162 6.33541 4.62381 6.47327 4.74004 6.58936L4.80618 6.6555C5.14151 6.99831 5.36642 7.43374 5.45197 7.90559C5.53612 8.36966 5.48163 8.84805 5.29561 9.28107C5.12785 9.72367 4.83288 10.107 4.44761 10.3825C4.05591 10.6627 3.58898 10.8185 3.10754 10.8298L3.09 10.83H3C2.66848 10.83 2.35054 10.9617 2.11612 11.1961C1.8817 11.4305 1.75 11.7485 1.75 12.08C1.75 12.4115 1.8817 12.7294 2.11612 12.9639C2.35054 13.1983 2.66848 13.33 3 13.33H3.17299C3.64104 13.3319 4.09834 13.4705 4.48858 13.729C4.8777 13.9867 5.18322 14.3522 5.36777 14.7809C5.56009 15.2186 5.61729 15.7039 5.53197 16.1744C5.44642 16.6462 5.22147 17.0816 4.88615 17.4244L4.88036 17.4303L4.82033 17.4903C4.70411 17.6064 4.61162 17.7446 4.54871 17.8963C4.4858 18.0481 4.45343 18.2107 4.45343 18.375C4.45343 18.5393 4.4858 18.7019 4.54871 18.8537C4.61162 19.0054 4.70382 19.1433 4.82003 19.2594C4.93612 19.3756 5.07457 19.4684 5.22632 19.5313C5.37807 19.5942 5.54073 19.6266 5.705 19.6266C5.86927 19.6266 6.03193 19.5942 6.18368 19.5313C6.33542 19.4684 6.47329 19.3762 6.58938 19.26L6.65552 19.1938C6.99833 18.8585 7.43376 18.6336 7.9056 18.548C8.36968 18.4639 8.84809 18.5184 9.28112 18.7044C9.72371 18.8721 10.107 19.1671 10.3825 19.5524C10.6627 19.9441 10.8185 20.411 10.8298 20.8924L10.83 20.91V21C10.83 21.3315 10.9617 21.6494 11.1961 21.8839C11.4305 22.1183 11.7485 22.25 12.08 22.25C12.4115 22.25 12.7295 22.1183 12.9639 21.8839C13.1983 21.6494 13.33 21.3315 13.33 21V20.83L13.33 20.827C13.3319 20.3589 13.4706 19.9016 13.729 19.5114C13.9867 19.1223 14.3521 18.8169 14.7807 18.6323C15.2185 18.4399 15.7038 18.3827 16.1744 18.468C16.6462 18.5536 17.0816 18.7785 17.4244 19.1138L17.4304 19.1196L17.4903 19.1797C17.6064 19.2959 17.7446 19.3884 17.8963 19.4513C18.0481 19.5142 18.2107 19.5466 18.375 19.5466C18.5393 19.5466 18.7019 19.5142 18.8537 19.4513C19.0054 19.3884 19.1433 19.2962 19.2594 19.1799C19.3756 19.0639 19.4684 18.9254 19.5313 18.7737C19.5942 18.6219 19.6266 18.4593 19.6266 18.295C19.6266 18.1307 19.5942 17.9681 19.5313 17.8163C19.4684 17.6646 19.3762 17.5267 19.26 17.4106L19.1938 17.3445C18.8585 17.0017 18.6336 16.5662 18.548 16.0944C18.4627 15.6238 18.5199 15.1384 18.7123 14.7006C18.8969 14.2721 19.2024 13.9066 19.5914 13.649C19.9817 13.3905 20.439 13.2519 20.907 13.25L20.91 13.25L21 13.25C21.3315 13.25 21.6495 13.1183 21.8839 12.8839C22.1183 12.6494 22.25 12.3315 22.25 12C22.25 11.6685 22.1183 11.3505 21.8839 11.1161C21.6495 10.8817 21.3315 10.75 21 10.75H20.83L20.827 10.75C20.359 10.7481 19.9017 10.6094 19.5114 10.351C19.1212 10.0926 18.815 9.72564 18.6306 9.29543C18.6002 9.2244 18.581 9.14923 18.5735 9.0726C18.429 8.67448 18.3921 8.24421 18.468 7.82559C18.5536 7.35374 18.7785 6.91834 19.1139 6.57554L19.1196 6.56962L19.1797 6.50966C19.2959 6.39356 19.3884 6.25541 19.4513 6.10366C19.5142 5.95191 19.5466 5.78925 19.5466 5.62498C19.5466 5.46072 19.5142 5.29806 19.4513 5.14631C19.3884 4.99456 19.2962 4.8567 19.18 4.74061C19.0639 4.62439 18.9254 4.5316 18.7737 4.4687C18.6219 4.40579 18.4593 4.37341 18.295 4.37341C18.1307 4.37341 17.9681 4.40579 17.8163 4.4687C17.6646 4.5316 17.5267 4.6238 17.4106 4.74002L17.3445 4.80616C17.0017 5.14149 16.5662 5.3664 16.0944 5.45196C15.6239 5.53727 15.1386 5.48008 14.7009 5.28776C14.2722 5.10321 13.9067 4.79769 13.649 4.40856C13.3906 4.01832 13.2519 3.56103 13.25 3.09298L13.25 3.08998V2.99998C13.25 2.66846 13.1183 2.35052 12.8839 2.1161C12.6495 1.88168 12.3315 1.74998 12 1.74998ZM10.0555 1.05544C10.5712 0.539716 11.2707 0.249985 12 0.249985C12.7293 0.249985 13.4288 0.539716 13.9445 1.05544C14.4603 1.57117 14.75 2.27064 14.75 2.99998V3.08822C14.7509 3.26331 14.8029 3.43434 14.8996 3.58034C14.9965 3.72668 15.1341 3.84149 15.2954 3.91063L15.3028 3.9138C15.4674 3.98641 15.6498 4.00811 15.8268 3.97602C16.0026 3.94415 16.1648 3.86069 16.293 3.73632L16.3494 3.67995C16.3493 3.68005 16.3495 3.67985 16.3494 3.67995C16.6047 3.4244 16.9082 3.22137 17.2419 3.08304C17.5758 2.94464 17.9336 2.87341 18.295 2.87341C18.6564 2.87341 19.0142 2.94464 19.3481 3.08304C19.6817 3.22132 19.9848 3.42395 20.24 3.67936C20.4957 3.93476 20.6986 4.23805 20.8369 4.5719C20.9753 4.90574 21.0466 5.26359 21.0466 5.62498C21.0466 5.98638 20.9753 6.34423 20.8369 6.67807C20.6986 7.01179 20.4959 7.31497 20.2403 7.57031C20.2402 7.57041 20.2404 7.57021 20.2403 7.57031L20.1837 7.62698C20.0593 7.75514 19.9758 7.91742 19.944 8.0932C19.9119 8.27015 19.9335 8.45264 20.0061 8.61716C20.033 8.67801 20.0516 8.74201 20.0615 8.80745C20.1306 8.92447 20.2255 9.02479 20.3396 9.10037C20.4856 9.19706 20.6567 9.24905 20.8318 9.24998H21C21.7293 9.24998 22.4288 9.53972 22.9445 10.0554C23.4603 10.5712 23.75 11.2706 23.75 12C23.75 12.7293 23.4603 13.4288 22.9445 13.9445C22.4288 14.4603 21.7293 14.75 21 14.75H20.9118C20.7367 14.7509 20.5656 14.8029 20.4196 14.8996C20.2733 14.9965 20.1585 15.1341 20.0894 15.2954L20.0862 15.3028C20.0136 15.4673 19.9919 15.6498 20.024 15.8268C20.0558 16.0026 20.1393 16.1648 20.2637 16.293L20.32 16.3494C20.5757 16.6048 20.7786 16.9081 20.9169 17.2419C21.0553 17.5757 21.1266 17.9336 21.1266 18.295C21.1266 18.6564 21.0553 19.0142 20.9169 19.3481C20.7786 19.6818 20.5759 19.985 20.3203 20.2403C20.065 20.4959 19.7618 20.6986 19.4281 20.8369C19.0942 20.9753 18.7364 21.0466 18.375 21.0466C18.0136 21.0466 17.6558 20.9753 17.3219 20.8369C16.9881 20.6985 16.6848 20.4957 16.4294 20.24L16.373 20.1836C16.2448 20.0593 16.0826 19.9758 15.9068 19.9439C15.7298 19.9119 15.5473 19.9335 15.3828 20.0061L15.3755 20.0094C15.2141 20.0785 15.0765 20.1933 14.9796 20.3396C14.8829 20.4856 14.8309 20.6567 14.83 20.8317V21C14.83 21.7293 14.5403 22.4288 14.0245 22.9445C13.5088 23.4603 12.8093 23.75 12.08 23.75C11.3507 23.75 10.6512 23.4603 10.1355 22.9445C9.61973 22.4288 9.33 21.7293 9.33 21V20.9201C9.32437 20.7422 9.2661 20.5699 9.16248 20.425C9.05742 20.2781 8.91061 20.1662 8.74111 20.1039C8.72628 20.0984 8.71163 20.0925 8.69718 20.0861C8.53266 20.0135 8.35016 19.9919 8.17322 20.0239C7.99743 20.0558 7.83513 20.1393 7.70696 20.2637L7.65062 20.32C7.39522 20.5757 7.09193 20.7785 6.75809 20.9169C6.42424 21.0553 6.06639 21.1266 5.705 21.1266C5.34361 21.1266 4.98576 21.0553 4.65191 20.9169C4.31807 20.7785 4.01478 20.5757 3.75937 20.32C3.50397 20.0647 3.30134 19.7617 3.16305 19.4281C3.02466 19.0942 2.95343 18.7364 2.95343 18.375C2.95343 18.0136 3.02466 17.6557 3.16305 17.3219C3.30139 16.9882 3.50412 16.685 3.75967 16.4297L3.81633 16.373C3.94071 16.2448 4.02417 16.0825 4.05604 15.9068C4.08812 15.7298 4.06646 15.5473 3.99385 15.3828L3.99061 15.3755C3.92146 15.2141 3.80669 15.0765 3.66035 14.9796C3.51435 14.8829 3.34333 14.8309 3.16823 14.83H3C2.27065 14.83 1.57118 14.5403 1.05546 14.0245C0.539732 13.5088 0.25 12.8093 0.25 12.08C0.25 11.3506 0.539732 10.6512 1.05546 10.1354C1.57118 9.61972 2.27065 9.32998 3 9.32998H3.07991C3.25782 9.32435 3.43012 9.26608 3.57499 9.16247C3.72188 9.05741 3.83376 8.91059 3.8961 8.7411C3.90155 8.72627 3.90747 8.71162 3.91385 8.69716C3.98646 8.53264 4.00812 8.35015 3.97604 8.1732C3.94416 7.99741 3.8607 7.83512 3.73631 7.70695L3.67997 7.65061C3.67987 7.65051 3.68006 7.65071 3.67997 7.65061C3.42442 7.39527 3.22139 7.09179 3.08305 6.75807C2.94466 6.42423 2.87343 6.06638 2.87343 5.70498C2.87343 5.34359 2.94466 4.98574 3.08305 4.6519C3.22139 4.31818 3.42412 4.01499 3.67967 3.75965C3.93501 3.50411 4.2382 3.30137 4.57191 3.16304C4.90576 3.02464 5.26361 2.95341 5.625 2.95341C5.98639 2.95341 6.34424 3.02464 6.67809 3.16304C7.0118 3.30137 7.31499 3.50411 7.57033 3.75965C7.57023 3.75956 7.57043 3.75975 7.57033 3.75965L7.62697 3.81629C7.75513 3.94068 7.91743 4.02415 8.09322 4.05602C8.27016 4.0881 8.45266 4.06645 8.61718 3.99384C8.67803 3.96698 8.74203 3.94841 8.80746 3.93848C8.92449 3.86941 9.0248 3.77446 9.10038 3.66034C9.19707 3.51434 9.24906 3.34331 9.25 3.16822V2.99998C9.25 2.27064 9.53973 1.57117 10.0555 1.05544ZM12 9.75C10.7574 9.75 9.75002 10.7574 9.75002 12C9.75002 13.2426 10.7574 14.25 12 14.25C13.2427 14.25 14.25 13.2426 14.25 12C14.25 10.7574 13.2427 9.75 12 9.75ZM8.25002 12C8.25002 9.92893 9.92895 8.25 12 8.25C14.0711 8.25 15.75 9.92893 15.75 12C15.75 14.0711 14.0711 15.75 12 15.75C9.92895 15.75 8.25002 14.0711 8.25002 12Z" fill="black"/>
</g>
<defs>
<clipPath id="clip0_131_948">
<rect width="24" height="24" fill="white"/>
</clipPath>
</defs>
</svg>
